<svg width="29" height="27" viewBox="0 0 29 27" fill="none" xmlns="http://www.w3.org/2000/svg">
<mask id="path-1-outside-1_3_713" maskUnits="userSpaceOnUse" x="-0.0405273" y="0.0186768" width="29" height="27" fill="black">
<rect fill="white" x="-0.0405273" y="0.0186768" width="29" height="27"/>
<path d="M25.6021 11.8229C24.7086 8.34518 22.2035 5.45424 18.8232 4.10329C18.2393 2.27987 16.5225 1.01868 14.5958 1.01868C12.6198 1.01868 10.942 2.31689 10.3686 4.10495C8.3328 4.92035 6.58944 6.29591 5.31397 8.09797C4.5082 9.23649 3.92728 10.4951 3.58712 11.823C2.11999 11.9326 0.959473 13.1604 0.959473 14.655C0.959473 16.1505 2.12116 17.379 3.58946 17.4873C4.85119 22.3874 9.30731 26.0187 14.5958 26.0187C19.8841 26.0187 24.3403 22.3874 25.6019 17.4873C27.0702 17.379 28.232 16.1505 28.232 14.6549C28.232 13.1596 27.0703 11.9313 25.6021 11.8229ZM2.09592 14.6549C2.09592 13.8709 2.62821 13.2089 3.35029 13.0109C3.3015 13.349 3.26752 13.6905 3.24909 14.0345C3.24877 14.0393 3.24861 14.044 3.24834 14.0488C3.24504 14.1115 3.24211 14.1742 3.23987 14.237C3.23896 14.2608 3.23849 14.2846 3.23785 14.3084C3.23646 14.3534 3.23502 14.3985 3.23417 14.4436C3.23295 14.514 3.2322 14.5845 3.2322 14.655C3.2322 14.741 3.23353 14.827 3.23556 14.9131C3.23614 14.94 3.23689 14.9669 3.23774 14.9937C3.23955 15.0563 3.242 15.1189 3.24488 15.1814C3.24605 15.2079 3.24711 15.2345 3.24845 15.2611C3.2526 15.3392 3.25761 15.4172 3.26331 15.4952C3.26602 15.5318 3.26922 15.5682 3.2722 15.6048C3.27609 15.651 3.28014 15.6973 3.28456 15.7435C3.28845 15.7842 3.29244 15.8249 3.29676 15.8655C3.30177 15.913 3.30747 15.9604 3.31306 16.0079C3.32046 16.07 3.3284 16.1319 3.33676 16.1936C3.34156 16.229 3.34598 16.2643 3.35109 16.2995C2.62858 16.1018 2.09592 15.4394 2.09592 14.6549ZM14.5958 2.15512C15.7211 2.15512 16.7504 2.73306 17.3512 3.63769C17.3399 3.63758 17.3285 3.63753 17.3172 3.63753C17.3098 3.63753 17.3027 3.63806 17.2953 3.63812C17.2925 3.63822 17.2896 3.63817 17.2868 3.63833C15.5176 3.65479 14.0835 5.09842 14.0835 6.87129C14.0835 7.5612 14.3002 8.21713 14.6896 8.75832C14.6584 8.75917 14.627 8.75965 14.5958 8.75965C12.775 8.75965 11.2936 7.2783 11.2936 5.45749C11.2936 3.63652 12.7749 2.15512 14.5958 2.15512ZM24.8192 14.9242C24.8189 14.938 24.8181 14.9518 24.8177 14.9656C24.8154 15.0418 24.8126 15.1179 24.8086 15.194C24.8079 15.2076 24.8068 15.2212 24.806 15.2348C24.8017 15.3108 24.7969 15.3869 24.791 15.4628C24.7898 15.4782 24.7881 15.4934 24.7869 15.5087C24.7808 15.5821 24.7741 15.6555 24.7665 15.7287C24.7644 15.7491 24.7618 15.7694 24.7595 15.7898C24.7521 15.8569 24.7443 15.9239 24.7356 15.9909C24.7319 16.0189 24.7277 16.0467 24.7238 16.0746C24.7158 16.1326 24.7076 16.1904 24.6985 16.2481C24.6926 16.2856 24.6862 16.3229 24.6798 16.3604C24.672 16.4071 24.6642 16.4537 24.6557 16.5003C24.647 16.5477 24.6378 16.5947 24.6285 16.6418C24.6216 16.677 24.6146 16.7124 24.6073 16.7476C23.639 21.3866 19.5179 24.8822 14.5957 24.8822C9.66979 24.8822 5.54632 21.3817 4.58187 16.7376C4.57313 16.6955 4.56509 16.6531 4.55694 16.6108C4.54906 16.5705 4.54101 16.5301 4.53366 16.4895C4.52322 16.4321 4.51369 16.3744 4.50421 16.3168C4.49989 16.2903 4.49515 16.2639 4.49105 16.2374C4.47976 16.1644 4.46942 16.0913 4.45962 16.0181C4.45797 16.0057 4.45595 15.9933 4.4544 15.9809C4.44322 15.8947 4.43299 15.8082 4.42399 15.7217C4.42399 15.7213 4.42388 15.7208 4.42388 15.7204C4.38707 15.3667 4.36848 15.0109 4.36848 14.6551C4.36848 14.5749 4.36981 14.4945 4.37173 14.4143C4.37243 14.3879 4.37322 14.3616 4.37408 14.3353C4.37573 14.2813 4.37796 14.2273 4.38052 14.1732C4.38196 14.1418 4.38334 14.1103 4.3851 14.079C4.38782 14.0311 4.39123 13.9833 4.39458 13.9355C4.4005 13.853 4.40716 13.7705 4.41499 13.6884C4.41589 13.6789 4.41664 13.6695 4.41754 13.6601C4.76676 10.1238 6.95692 6.9855 10.1576 5.43959C10.1576 5.44561 10.1572 5.45153 10.1572 5.45754C10.1572 5.86429 10.2132 6.25793 10.3162 6.63239C9.29634 7.17545 8.40077 7.89902 7.65008 8.78863C7.44767 9.02849 7.47808 9.38697 7.71794 9.58928C7.82458 9.6793 7.95466 9.72319 8.0841 9.72319C8.24571 9.72319 8.40625 9.65458 8.51859 9.52142C9.15273 8.76993 9.90491 8.15406 10.759 7.68489C11.5288 9.00574 12.9599 9.89609 14.5958 9.89609C15.0974 9.89609 15.5904 9.81268 16.0606 9.64824C16.2654 9.5766 16.4116 9.39459 16.4373 9.17907C16.4629 8.96361 16.3636 8.7523 16.1813 8.63463C15.5793 8.24573 15.2199 7.58661 15.2199 6.8714C15.2199 5.73837 16.1231 4.81297 17.2473 4.77584C21.0215 5.78561 23.8284 8.83731 24.606 12.5567C24.6189 12.6182 24.6314 12.6799 24.643 12.7417C24.6491 12.7739 24.6547 12.8064 24.6606 12.8388C24.6697 12.8894 24.6786 12.94 24.6869 12.9907C24.6919 13.0211 24.6966 13.0515 24.7014 13.082C24.7102 13.139 24.7186 13.1961 24.7263 13.2533C24.7297 13.2771 24.7331 13.301 24.7362 13.3248C24.7578 13.4909 24.7755 13.6576 24.789 13.8247C24.7906 13.8438 24.7918 13.8631 24.7933 13.8823C24.7982 13.9465 24.8024 14.0109 24.806 14.0752C24.8074 14.1002 24.8088 14.1253 24.81 14.1503C24.8131 14.2116 24.8154 14.2729 24.8173 14.3342C24.8181 14.3579 24.8189 14.3816 24.8196 14.4052C24.8216 14.4885 24.8229 14.5718 24.8229 14.655C24.8228 14.7448 24.8216 14.8345 24.8192 14.9242ZM25.8404 16.2995C25.8466 16.2566 25.8522 16.2134 25.858 16.1703C25.8641 16.1248 25.8699 16.0792 25.8755 16.0335C25.8825 15.9762 25.8892 15.9188 25.8953 15.8614C25.8993 15.8238 25.903 15.7861 25.9065 15.7483C25.9113 15.6988 25.9156 15.6493 25.9197 15.5998C25.9226 15.5655 25.9256 15.5313 25.9281 15.4969C25.934 15.418 25.939 15.3391 25.9432 15.2601C25.9446 15.2346 25.9455 15.2091 25.9467 15.1836C25.9496 15.1201 25.952 15.0566 25.9539 14.993C25.9547 14.9665 25.9554 14.94 25.9561 14.9134C25.958 14.8273 25.9594 14.7412 25.9594 14.6549C25.9594 14.58 25.9585 14.505 25.957 14.4301C25.9564 14.4029 25.9555 14.3757 25.9548 14.3485C25.9536 14.3015 25.9521 14.2544 25.9504 14.2073C25.949 14.1739 25.9473 14.1404 25.9458 14.107C25.9439 14.0666 25.9418 14.0262 25.9394 13.9858C25.9373 13.9495 25.935 13.9132 25.9325 13.877C25.93 13.8397 25.9272 13.8026 25.9243 13.7653C25.9213 13.7276 25.9184 13.6897 25.915 13.6521C25.9118 13.6156 25.9082 13.5794 25.9047 13.543C25.901 13.5055 25.8975 13.468 25.8935 13.4306C25.889 13.3883 25.8838 13.3462 25.8788 13.304C25.8732 13.2571 25.8675 13.2102 25.8613 13.1635C25.8545 13.1124 25.8479 13.0614 25.8405 13.0105C26.5631 13.2082 27.0956 13.8705 27.0956 14.6548C27.0955 15.4395 26.563 16.1018 25.8404 16.2995Z"/>
</mask>
<path d="M25.6021 11.8229C24.7086 8.34518 22.2035 5.45424 18.8232 4.10329C18.2393 2.27987 16.5225 1.01868 14.5958 1.01868C12.6198 1.01868 10.942 2.31689 10.3686 4.10495C8.3328 4.92035 6.58944 6.29591 5.31397 8.09797C4.5082 9.23649 3.92728 10.4951 3.58712 11.823C2.11999 11.9326 0.959473 13.1604 0.959473 14.655C0.959473 16.1505 2.12116 17.379 3.58946 17.4873C4.85119 22.3874 9.30731 26.0187 14.5958 26.0187C19.8841 26.0187 24.3403 22.3874 25.6019 17.4873C27.0702 17.379 28.232 16.1505 28.232 14.6549C28.232 13.1596 27.0703 11.9313 25.6021 11.8229ZM2.09592 14.6549C2.09592 13.8709 2.62821 13.2089 3.35029 13.0109C3.3015 13.349 3.26752 13.6905 3.24909 14.0345C3.24877 14.0393 3.24861 14.044 3.24834 14.0488C3.24504 14.1115 3.24211 14.1742 3.23987 14.237C3.23896 14.2608 3.23849 14.2846 3.23785 14.3084C3.23646 14.3534 3.23502 14.3985 3.23417 14.4436C3.23295 14.514 3.2322 14.5845 3.2322 14.655C3.2322 14.741 3.23353 14.827 3.23556 14.9131C3.23614 14.94 3.23689 14.9669 3.23774 14.9937C3.23955 15.0563 3.242 15.1189 3.24488 15.1814C3.24605 15.2079 3.24711 15.2345 3.24845 15.2611C3.2526 15.3392 3.25761 15.4172 3.26331 15.4952C3.26602 15.5318 3.26922 15.5682 3.2722 15.6048C3.27609 15.651 3.28014 15.6973 3.28456 15.7435C3.28845 15.7842 3.29244 15.8249 3.29676 15.8655C3.30177 15.913 3.30747 15.9604 3.31306 16.0079C3.32046 16.07 3.3284 16.1319 3.33676 16.1936C3.34156 16.229 3.34598 16.2643 3.35109 16.2995C2.62858 16.1018 2.09592 15.4394 2.09592 14.6549ZM14.5958 2.15512C15.7211 2.15512 16.7504 2.73306 17.3512 3.63769C17.3399 3.63758 17.3285 3.63753 17.3172 3.63753C17.3098 3.63753 17.3027 3.63806 17.2953 3.63812C17.2925 3.63822 17.2896 3.63817 17.2868 3.63833C15.5176 3.65479 14.0835 5.09842 14.0835 6.87129C14.0835 7.5612 14.3002 8.21713 14.6896 8.75832C14.6584 8.75917 14.627 8.75965 14.5958 8.75965C12.775 8.75965 11.2936 7.2783 11.2936 5.45749C11.2936 3.63652 12.7749 2.15512 14.5958 2.15512ZM24.8192 14.9242C24.8189 14.938 24.8181 14.9518 24.8177 14.9656C24.8154 15.0418 24.8126 15.1179 24.8086 15.194C24.8079 15.2076 24.8068 15.2212 24.806 15.2348C24.8017 15.3108 24.7969 15.3869 24.791 15.4628C24.7898 15.4782 24.7881 15.4934 24.7869 15.5087C24.7808 15.5821 24.7741 15.6555 24.7665 15.7287C24.7644 15.7491 24.7618 15.7694 24.7595 15.7898C24.7521 15.8569 24.7443 15.9239 24.7356 15.9909C24.7319 16.0189 24.7277 16.0467 24.7238 16.0746C24.7158 16.1326 24.7076 16.1904 24.6985 16.2481C24.6926 16.2856 24.6862 16.3229 24.6798 16.3604C24.672 16.4071 24.6642 16.4537 24.6557 16.5003C24.647 16.5477 24.6378 16.5947 24.6285 16.6418C24.6216 16.677 24.6146 16.7124 24.6073 16.7476C23.639 21.3866 19.5179 24.8822 14.5957 24.8822C9.66979 24.8822 5.54632 21.3817 4.58187 16.7376C4.57313 16.6955 4.56509 16.6531 4.55694 16.6108C4.54906 16.5705 4.54101 16.5301 4.53366 16.4895C4.52322 16.4321 4.51369 16.3744 4.50421 16.3168C4.49989 16.2903 4.49515 16.2639 4.49105 16.2374C4.47976 16.1644 4.46942 16.0913 4.45962 16.0181C4.45797 16.0057 4.45595 15.9933 4.4544 15.9809C4.44322 15.8947 4.43299 15.8082 4.42399 15.7217C4.42399 15.7213 4.42388 15.7208 4.42388 15.7204C4.38707 15.3667 4.36848 15.0109 4.36848 14.6551C4.36848 14.5749 4.36981 14.4945 4.37173 14.4143C4.37243 14.3879 4.37322 14.3616 4.37408 14.3353C4.37573 14.2813 4.37796 14.2273 4.38052 14.1732C4.38196 14.1418 4.38334 14.1103 4.3851 14.079C4.38782 14.0311 4.39123 13.9833 4.39458 13.9355C4.4005 13.853 4.40716 13.7705 4.41499 13.6884C4.41589 13.6789 4.41664 13.6695 4.41754 13.6601C4.76676 10.1238 6.95692 6.9855 10.1576 5.43959C10.1576 5.44561 10.1572 5.45153 10.1572 5.45754C10.1572 5.86429 10.2132 6.25793 10.3162 6.63239C9.29634 7.17545 8.40077 7.89902 7.65008 8.78863C7.44767 9.02849 7.47808 9.38697 7.71794 9.58928C7.82458 9.6793 7.95466 9.72319 8.0841 9.72319C8.24571 9.72319 8.40625 9.65458 8.51859 9.52142C9.15273 8.76993 9.90491 8.15406 10.759 7.68489C11.5288 9.00574 12.9599 9.89609 14.5958 9.89609C15.0974 9.89609 15.5904 9.81268 16.0606 9.64824C16.2654 9.5766 16.4116 9.39459 16.4373 9.17907C16.4629 8.96361 16.3636 8.7523 16.1813 8.63463C15.5793 8.24573 15.2199 7.58661 15.2199 6.8714C15.2199 5.73837 16.1231 4.81297 17.2473 4.77584C21.0215 5.78561 23.8284 8.83731 24.606 12.5567C24.6189 12.6182 24.6314 12.6799 24.643 12.7417C24.6491 12.7739 24.6547 12.8064 24.6606 12.8388C24.6697 12.8894 24.6786 12.94 24.6869 12.9907C24.6919 13.0211 24.6966 13.0515 24.7014 13.082C24.7102 13.139 24.7186 13.1961 24.7263 13.2533C24.7297 13.2771 24.7331 13.301 24.7362 13.3248C24.7578 13.4909 24.7755 13.6576 24.789 13.8247C24.7906 13.8438 24.7918 13.8631 24.7933 13.8823C24.7982 13.9465 24.8024 14.0109 24.806 14.0752C24.8074 14.1002 24.8088 14.1253 24.81 14.1503C24.8131 14.2116 24.8154 14.2729 24.8173 14.3342C24.8181 14.3579 24.8189 14.3816 24.8196 14.4052C24.8216 14.4885 24.8229 14.5718 24.8229 14.655C24.8228 14.7448 24.8216 14.8345 24.8192 14.9242ZM25.8404 16.2995C25.8466 16.2566 25.8522 16.2134 25.858 16.1703C25.8641 16.1248 25.8699 16.0792 25.8755 16.0335C25.8825 15.9762 25.8892 15.9188 25.8953 15.8614C25.8993 15.8238 25.903 15.7861 25.9065 15.7483C25.9113 15.6988 25.9156 15.6493 25.9197 15.5998C25.9226 15.5655 25.9256 15.5313 25.9281 15.4969C25.934 15.418 25.939 15.3391 25.9432 15.2601C25.9446 15.2346 25.9455 15.2091 25.9467 15.1836C25.9496 15.1201 25.952 15.0566 25.9539 14.993C25.9547 14.9665 25.9554 14.94 25.9561 14.9134C25.958 14.8273 25.9594 14.7412 25.9594 14.6549C25.9594 14.58 25.9585 14.505 25.957 14.4301C25.9564 14.4029 25.9555 14.3757 25.9548 14.3485C25.9536 14.3015 25.9521 14.2544 25.9504 14.2073C25.949 14.1739 25.9473 14.1404 25.9458 14.107C25.9439 14.0666 25.9418 14.0262 25.9394 13.9858C25.9373 13.9495 25.935 13.9132 25.9325 13.877C25.93 13.8397 25.9272 13.8026 25.9243 13.7653C25.9213 13.7276 25.9184 13.6897 25.915 13.6521C25.9118 13.6156 25.9082 13.5794 25.9047 13.543C25.901 13.5055 25.8975 13.468 25.8935 13.4306C25.889 13.3883 25.8838 13.3462 25.8788 13.304C25.8732 13.2571 25.8675 13.2102 25.8613 13.1635C25.8545 13.1124 25.8479 13.0614 25.8405 13.0105C26.5631 13.2082 27.0956 13.8705 27.0956 14.6548C27.0955 15.4395 26.563 16.1018 25.8404 16.2995Z" fill="white"/>
<path d="M25.6021 11.8229C24.7086 8.34518 22.2035 5.45424 18.8232 4.10329C18.2393 2.27987 16.5225 1.01868 14.5958 1.01868C12.6198 1.01868 10.942 2.31689 10.3686 4.10495C8.3328 4.92035 6.58944 6.29591 5.31397 8.09797C4.5082 9.23649 3.92728 10.4951 3.58712 11.823C2.11999 11.9326 0.959473 13.1604 0.959473 14.655C0.959473 16.1505 2.12116 17.379 3.58946 17.4873C4.85119 22.3874 9.30731 26.0187 14.5958 26.0187C19.8841 26.0187 24.3403 22.3874 25.6019 17.4873C27.0702 17.379 28.232 16.1505 28.232 14.6549C28.232 13.1596 27.0703 11.9313 25.6021 11.8229ZM2.09592 14.6549C2.09592 13.8709 2.62821 13.2089 3.35029 13.0109C3.3015 13.349 3.26752 13.6905 3.24909 14.0345C3.24877 14.0393 3.24861 14.044 3.24834 14.0488C3.24504 14.1115 3.24211 14.1742 3.23987 14.237C3.23896 14.2608 3.23849 14.2846 3.23785 14.3084C3.23646 14.3534 3.23502 14.3985 3.23417 14.4436C3.23295 14.514 3.2322 14.5845 3.2322 14.655C3.2322 14.741 3.23353 14.827 3.23556 14.9131C3.23614 14.94 3.23689 14.9669 3.23774 14.9937C3.23955 15.0563 3.242 15.1189 3.24488 15.1814C3.24605 15.2079 3.24711 15.2345 3.24845 15.2611C3.2526 15.3392 3.25761 15.4172 3.26331 15.4952C3.26602 15.5318 3.26922 15.5682 3.2722 15.6048C3.27609 15.651 3.28014 15.6973 3.28456 15.7435C3.28845 15.7842 3.29244 15.8249 3.29676 15.8655C3.30177 15.913 3.30747 15.9604 3.31306 16.0079C3.32046 16.07 3.3284 16.1319 3.33676 16.1936C3.34156 16.229 3.34598 16.2643 3.35109 16.2995C2.62858 16.1018 2.09592 15.4394 2.09592 14.6549ZM14.5958 2.15512C15.7211 2.15512 16.7504 2.73306 17.3512 3.63769C17.3399 3.63758 17.3285 3.63753 17.3172 3.63753C17.3098 3.63753 17.3027 3.63806 17.2953 3.63812C17.2925 3.63822 17.2896 3.63817 17.2868 3.63833C15.5176 3.65479 14.0835 5.09842 14.0835 6.87129C14.0835 7.5612 14.3002 8.21713 14.6896 8.75832C14.6584 8.75917 14.627 8.75965 14.5958 8.75965C12.775 8.75965 11.2936 7.2783 11.2936 5.45749C11.2936 3.63652 12.7749 2.15512 14.5958 2.15512ZM24.8192 14.9242C24.8189 14.938 24.8181 14.9518 24.8177 14.9656C24.8154 15.0418 24.8126 15.1179 24.8086 15.194C24.8079 15.2076 24.8068 15.2212 24.806 15.2348C24.8017 15.3108 24.7969 15.3869 24.791 15.4628C24.7898 15.4782 24.7881 15.4934 24.7869 15.5087C24.7808 15.5821 24.7741 15.6555 24.7665 15.7287C24.7644 15.7491 24.7618 15.7694 24.7595 15.7898C24.7521 15.8569 24.7443 15.9239 24.7356 15.9909C24.7319 16.0189 24.7277 16.0467 24.7238 16.0746C24.7158 16.1326 24.7076 16.1904 24.6985 16.2481C24.6926 16.2856 24.6862 16.3229 24.6798 16.3604C24.672 16.4071 24.6642 16.4537 24.6557 16.5003C24.647 16.5477 24.6378 16.5947 24.6285 16.6418C24.6216 16.677 24.6146 16.7124 24.6073 16.7476C23.639 21.3866 19.5179 24.8822 14.5957 24.8822C9.66979 24.8822 5.54632 21.3817 4.58187 16.7376C4.57313 16.6955 4.56509 16.6531 4.55694 16.6108C4.54906 16.5705 4.54101 16.5301 4.53366 16.4895C4.52322 16.4321 4.51369 16.3744 4.50421 16.3168C4.49989 16.2903 4.49515 16.2639 4.49105 16.2374C4.47976 16.1644 4.46942 16.0913 4.45962 16.0181C4.45797 16.0057 4.45595 15.9933 4.4544 15.9809C4.44322 15.8947 4.43299 15.8082 4.42399 15.7217C4.42399 15.7213 4.42388 15.7208 4.42388 15.7204C4.38707 15.3667 4.36848 15.0109 4.36848 14.6551C4.36848 14.5749 4.36981 14.4945 4.37173 14.4143C4.37243 14.3879 4.37322 14.3616 4.37408 14.3353C4.37573 14.2813 4.37796 14.2273 4.38052 14.1732C4.38196 14.1418 4.38334 14.1103 4.3851 14.079C4.38782 14.0311 4.39123 13.9833 4.39458 13.9355C4.4005 13.853 4.40716 13.7705 4.41499 13.6884C4.41589 13.6789 4.41664 13.6695 4.41754 13.6601C4.76676 10.1238 6.95692 6.9855 10.1576 5.43959C10.1576 5.44561 10.1572 5.45153 10.1572 5.45754C10.1572 5.86429 10.2132 6.25793 10.3162 6.63239C9.29634 7.17545 8.40077 7.89902 7.65008 8.78863C7.44767 9.02849 7.47808 9.38697 7.71794 9.58928C7.82458 9.6793 7.95466 9.72319 8.0841 9.72319C8.24571 9.72319 8.40625 9.65458 8.51859 9.52142C9.15273 8.76993 9.90491 8.15406 10.759 7.68489C11.5288 9.00574 12.9599 9.89609 14.5958 9.89609C15.0974 9.89609 15.5904 9.81268 16.0606 9.64824C16.2654 9.5766 16.4116 9.39459 16.4373 9.17907C16.4629 8.96361 16.3636 8.7523 16.1813 8.63463C15.5793 8.24573 15.2199 7.58661 15.2199 6.8714C15.2199 5.73837 16.1231 4.81297 17.2473 4.77584C21.0215 5.78561 23.8284 8.83731 24.606 12.5567C24.6189 12.6182 24.6314 12.6799 24.643 12.7417C24.6491 12.7739 24.6547 12.8064 24.6606 12.8388C24.6697 12.8894 24.6786 12.94 24.6869 12.9907C24.6919 13.0211 24.6966 13.0515 24.7014 13.082C24.7102 13.139 24.7186 13.1961 24.7263 13.2533C24.7297 13.2771 24.7331 13.301 24.7362 13.3248C24.7578 13.4909 24.7755 13.6576 24.789 13.8247C24.7906 13.8438 24.7918 13.8631 24.7933 13.8823C24.7982 13.9465 24.8024 14.0109 24.806 14.0752C24.8074 14.1002 24.8088 14.1253 24.81 14.1503C24.8131 14.2116 24.8154 14.2729 24.8173 14.3342C24.8181 14.3579 24.8189 14.3816 24.8196 14.4052C24.8216 14.4885 24.8229 14.5718 24.8229 14.655C24.8228 14.7448 24.8216 14.8345 24.8192 14.9242ZM25.8404 16.2995C25.8466 16.2566 25.8522 16.2134 25.858 16.1703C25.8641 16.1248 25.8699 16.0792 25.8755 16.0335C25.8825 15.9762 25.8892 15.9188 25.8953 15.8614C25.8993 15.8238 25.903 15.7861 25.9065 15.7483C25.9113 15.6988 25.9156 15.6493 25.9197 15.5998C25.9226 15.5655 25.9256 15.5313 25.9281 15.4969C25.934 15.418 25.939 15.3391 25.9432 15.2601C25.9446 15.2346 25.9455 15.2091 25.9467 15.1836C25.9496 15.1201 25.952 15.0566 25.9539 14.993C25.9547 14.9665 25.9554 14.94 25.9561 14.9134C25.958 14.8273 25.9594 14.7412 25.9594 14.6549C25.9594 14.58 25.9585 14.505 25.957 14.4301C25.9564 14.4029 25.9555 14.3757 25.9548 14.3485C25.9536 14.3015 25.9521 14.2544 25.9504 14.2073C25.949 14.1739 25.9473 14.1404 25.9458 14.107C25.9439 14.0666 25.9418 14.0262 25.9394 13.9858C25.9373 13.9495 25.935 13.9132 25.9325 13.877C25.93 13.8397 25.9272 13.8026 25.9243 13.7653C25.9213 13.7276 25.9184 13.6897 25.915 13.6521C25.9118 13.6156 25.9082 13.5794 25.9047 13.543C25.901 13.5055 25.8975 13.468 25.8935 13.4306C25.889 13.3883 25.8838 13.3462 25.8788 13.304C25.8732 13.2571 25.8675 13.2102 25.8613 13.1635C25.8545 13.1124 25.8479 13.0614 25.8405 13.0105C26.5631 13.2082 27.0956 13.8705 27.0956 14.6548C27.0955 15.4395 26.563 16.1018 25.8404 16.2995Z" stroke="#E6E7F2" stroke-width="0.4" mask="url(#path-1-outside-1_3_713)"/>
<path d="M10.3794 13.5782C11.4288 13.5783 12.3509 14.2863 12.6226 15.2999C12.7108 15.6296 12.5157 15.9683 12.186 16.0568C12.1325 16.0711 12.0779 16.0782 12.0249 16.0782C11.7522 16.0781 11.5022 15.8953 11.4282 15.6193C11.301 15.1455 10.8699 14.8146 10.3794 14.8146C9.88888 14.8146 9.4568 15.1453 9.32959 15.6193C9.24121 15.949 8.90259 16.145 8.57275 16.0568C8.2431 15.9683 8.04794 15.6297 8.13623 15.2999C8.40794 14.2863 9.3301 13.5782 10.3794 13.5782Z" fill="white" stroke="#E6E7F2" stroke-width="0.1"/>
<path d="M18.8124 13.5782C19.8617 13.5783 20.7839 14.2863 21.0555 15.2999C21.1438 15.6295 20.9486 15.9683 20.619 16.0568C20.5655 16.0711 20.5108 16.0782 20.4579 16.0782C20.1851 16.078 19.9352 15.8953 19.8612 15.6193C19.734 15.1455 19.3028 14.8146 18.8124 14.8146C18.3217 14.8146 17.8897 15.1454 17.7626 15.6193C17.6743 15.949 17.3355 16.1452 17.0057 16.0568C16.6761 15.9684 16.4801 15.6296 16.5682 15.2999C16.8398 14.2862 17.7629 13.5782 18.8124 13.5782Z" fill="white" stroke="#E6E7F2" stroke-width="0.1"/>
<path d="M16.4027 19.2513C16.7322 19.3399 16.9275 19.6786 16.8392 20.0082C16.5675 21.0218 15.6453 21.7298 14.5961 21.7299C13.5467 21.7299 12.6246 21.0218 12.3529 20.0082C12.2645 19.6784 12.4597 19.3398 12.7894 19.2513C13.1192 19.163 13.4578 19.3582 13.5463 19.6879C13.6733 20.162 14.1053 20.4935 14.5961 20.4935C15.0867 20.4935 15.5178 20.162 15.6449 19.6879C15.7333 19.358 16.073 19.163 16.4027 19.2513Z" fill="white" stroke="#E6E7F2" stroke-width="0.1"/>
</svg>
