<svg width="31" height="30" viewBox="0 0 31 30" fill="none" xmlns="http://www.w3.org/2000/svg">
<g clip-path="url(#clip0_1_3482)">
<path d="M15.5482 0.516174C16.5446 0.419768 17.5849 0.741525 18.4876 1.28473H18.4886C20.8896 2.72771 22.8033 5.22903 24.471 7.59625C25.6023 9.20291 26.5688 10.8225 27.3333 12.6177V12.6187C28.2089 14.6714 28.8863 16.8138 29.4427 18.9937V18.9947C29.5008 19.2195 29.5569 19.446 29.6126 19.6734L29.6136 19.6773L29.6165 19.6871L29.7112 20.0816C29.7286 20.1553 29.7398 20.1977 29.7523 20.2545L29.7552 20.2672L29.8109 20.5054C30.323 22.7256 29.75 24.3471 28.6194 25.5718C27.4627 26.825 25.6903 27.6947 23.7708 28.2896C19.9392 29.4772 15.7564 29.4995 15.5062 29.4996H15.4935L14.6663 29.4791C13.2555 29.4206 10.2828 29.1986 7.45441 28.358C5.56658 27.7969 3.79638 26.9752 2.59113 25.7886C1.4092 24.6249 0.752188 23.096 1.08722 21.022L1.0882 21.0172C1.09684 20.9603 1.10695 20.9031 1.11749 20.8443C1.13766 20.7342 1.16168 20.6206 1.18878 20.5035L1.18781 20.5025C1.24143 20.272 1.29719 20.0422 1.35284 19.8111L1.35187 19.8101C1.38779 19.6627 1.42401 19.5176 1.46027 19.3736V19.3726C1.49443 19.2362 1.52907 19.1012 1.56378 18.9654C1.59709 18.8353 1.6289 18.7069 1.66241 18.5806V18.5836C1.66356 18.5797 1.664 18.5749 1.66534 18.5699L1.6673 18.566C1.73023 18.3263 1.79442 18.0874 1.86163 17.8502L1.86456 17.8404C1.87334 17.8068 1.87976 17.7805 1.88702 17.7554L1.88898 17.7505C2.37877 16.0001 2.95719 14.2801 3.66437 12.6187C4.42988 10.8233 5.39638 9.20292 6.52765 7.59625C8.1954 5.22889 10.1098 2.72771 12.511 1.28473C13.4135 0.741654 14.4551 0.419913 15.4515 0.516174L15.5003 0.521057L15.5482 0.516174ZM1.65656 18.6021L1.65753 18.6002L1.65851 18.5972C1.65777 18.5995 1.65678 18.6014 1.65656 18.6021Z" fill="url(#paint0_radial_1_3482)" stroke="white"/>
<circle cx="19.5001" cy="8.00006" r="1.5" fill="#D7D9FF" stroke="white"/>
<path d="M1.65729 18.5967H1.65826C1.65922 18.5937 1.66061 18.5893 1.66217 18.584C1.66329 18.5802 1.66379 18.5752 1.6651 18.5703L1.66705 18.5664C1.71613 18.3795 1.76688 18.1933 1.81842 18.0078C2.65526 17.3728 3.56901 16.6202 4.34381 15.835C5.11737 15.051 5.79872 14.1902 6.09479 13.3506C6.46981 12.2875 6.91302 11.7164 7.33014 11.4287C7.73208 11.1515 8.1652 11.0994 8.62799 11.1973C9.10536 11.2983 9.60279 11.5582 10.0723 11.8906C10.4214 12.1378 10.7403 12.4143 11.0069 12.6689L11.2549 12.9141C11.7849 13.4556 12.5998 13.5954 13.2715 13.2559L13.4044 13.1816C14.1373 12.7259 15.1121 11.8723 16.0587 10.293C16.5744 9.43317 17.6 9.07334 18.4942 9.40625L18.671 9.48242C20.3721 10.3131 23.2496 12.4029 27.9258 17.3867L28.8848 18.4219C29.0958 18.653 29.2895 18.8802 29.4688 19.1016L29.6124 19.6738L29.6133 19.6768L29.6163 19.6875L29.711 20.082C29.7283 20.1556 29.7395 20.198 29.752 20.2549L29.7549 20.2676C29.7742 20.3455 29.7894 20.4145 29.8106 20.5049C30.3229 22.7251 29.7497 24.3464 28.6192 25.5713C27.4624 26.8245 25.6901 27.6951 23.7706 28.29C19.939 29.4776 15.7562 29.5 15.5059 29.5H15.4932L14.6661 29.4785C13.2552 29.4201 10.2826 29.199 7.45416 28.3584C5.56615 27.7973 3.79616 26.9748 2.59088 25.7881C1.40903 24.6244 0.75208 23.0963 1.08698 21.0225L1.08795 21.0176C1.09663 20.9604 1.10665 20.9028 1.11725 20.8438C1.1374 20.7338 1.1605 20.6198 1.18756 20.5029C1.24122 20.2723 1.29594 20.0418 1.35162 19.8105L1.46002 19.373L1.56354 18.9648L1.65729 18.5967ZM1.65729 18.5967C1.65786 18.5948 1.65945 18.5924 1.66022 18.5898C1.66096 18.5873 1.66129 18.5843 1.66217 18.5811L1.65729 18.5967Z" fill="#8589EB" stroke="white"/>
<path opacity="0.15" d="M11.2794 19.8376C13.1468 18.1509 15.3931 17.9108 17.4278 18.3933C19.4822 18.8805 21.2577 20.0929 22.1065 21.2058C22.8105 22.1283 23.8764 22.4576 24.9044 22.5124C25.9325 22.5672 26.9962 22.3531 27.8174 22.113V22.114C28.113 22.0279 28.4082 21.9289 28.6983 21.8132H28.6993C28.9731 21.7039 29.2447 21.5788 29.5098 21.4333L29.5108 21.4343C29.5674 21.4036 29.6249 21.3697 29.6827 21.3357L29.6837 21.3366C29.7679 21.2873 29.8512 21.235 29.9337 21.1814C30.1947 23.06 29.6318 24.475 28.6192 25.572C27.4624 26.8252 25.6901 27.6948 23.7706 28.2898C19.939 29.4773 15.7562 29.4997 15.5059 29.4997H15.4932L14.6661 29.4792C13.2552 29.4208 10.2826 29.1987 7.45416 28.3581C5.56632 27.7971 3.79613 26.9754 2.59088 25.7888C1.40896 24.625 0.751943 23.0962 1.08698 21.0222L1.08795 21.0173C1.09659 20.9604 1.10671 20.9032 1.11725 20.8445C1.13742 20.7344 1.16143 20.6207 1.18854 20.5036L1.18756 20.5027C1.24118 20.2722 1.29695 20.0424 1.3526 19.8112L1.35162 19.8103C1.3608 19.7726 1.37081 19.7353 1.37994 19.698C1.90669 19.6533 2.40248 19.8002 2.80377 20.323L2.80573 20.3249C2.86916 20.4067 2.93612 20.4917 3.00592 20.5759C3.35728 20.9999 3.75387 21.3902 4.20807 21.697V21.698C4.45194 21.8629 4.71328 22.004 4.99323 22.113L5.27936 22.2107C5.98139 22.4193 6.7615 22.4159 7.62701 22.1482L7.62799 22.1491C8.70181 21.818 9.90411 21.0798 11.2794 19.8376Z" fill="white" stroke="white"/>
<path opacity="0.15" d="M1.75299 18.2489C1.93719 18.3285 2.12285 18.4336 2.30573 18.5771C2.80379 18.9679 3.31091 19.6365 3.75592 20.7382L3.7569 20.7392C3.83171 20.9236 3.90502 21.1201 3.97467 21.328L3.97565 21.3329L4.01959 21.4579C4.44665 22.6748 5.20093 24.0937 6.57721 24.6942C6.71513 24.7549 6.85834 24.8062 7.00397 24.8476C7.90018 25.1012 8.82827 24.9735 9.66412 24.6786C10.397 24.42 11.0853 24.0242 11.6651 23.6015L11.9063 23.4189C12.1058 23.2629 12.303 23.0933 12.4805 22.9452C12.664 22.7922 12.8368 22.6529 13.0157 22.5321H13.0167C14.1443 21.7705 15.4325 21.9314 16.7149 22.5946C17.8395 23.1764 18.885 24.1126 19.6505 24.9843L19.961 25.3524C20.0335 25.4426 20.1051 25.5345 20.1768 25.6269V25.6259C20.4746 26.0116 20.7892 26.3276 21.1212 26.5722V26.5732C21.8628 27.1226 22.6574 27.2967 23.4522 27.1776C24.2287 27.0612 24.9732 26.6708 25.6583 26.1503C27.0247 25.1121 28.2819 23.4585 29.2579 21.954C29.4128 21.7167 29.5593 21.482 29.6983 21.2548C29.766 21.1448 29.8313 21.0358 29.8956 20.9286C30.2455 22.9338 29.6767 24.4265 28.6192 25.5722C27.4624 26.8253 25.6901 27.695 23.7706 28.2899C19.939 29.4775 15.7562 29.4999 15.5059 29.4999H15.4932L14.6661 29.4794C13.2552 29.421 10.2826 29.1989 7.45416 28.3583C5.56633 27.7972 3.79614 26.9755 2.59088 25.789C1.40896 24.6252 0.751943 23.0964 1.08698 21.0224L1.08795 21.0175C1.09659 20.9606 1.10671 20.9034 1.11725 20.8446C1.13742 20.7345 1.16143 20.6209 1.18854 20.5038L1.18756 20.5028C1.24119 20.2723 1.29695 20.0426 1.3526 19.8114L1.35162 19.8105C1.38755 19.663 1.42376 19.518 1.46002 19.3739V19.373C1.49419 19.2365 1.52882 19.1016 1.56354 18.9657C1.59684 18.8356 1.62866 18.7073 1.66217 18.581V18.5839C1.66332 18.58 1.66376 18.5753 1.6651 18.5702L1.66705 18.5663C1.69492 18.4602 1.7244 18.3546 1.75299 18.2489ZM1.65631 18.6024L1.65729 18.6005L1.65826 18.5976C1.65754 18.5998 1.65655 18.6017 1.65631 18.6024Z" fill="white" stroke="white"/>
<path opacity="0.15" d="M29.8184 20.5467C30.3142 22.746 29.7428 24.3548 28.6192 25.5721C27.4624 26.8253 25.69 27.6949 23.7706 28.2899C19.939 29.4774 15.7562 29.4998 15.5059 29.4998H15.4932L14.6661 29.4793C13.2552 29.4209 10.2826 29.1988 7.45416 28.3582C5.56634 27.7972 3.79614 26.9755 2.59088 25.7889C1.45368 24.6692 0.804897 23.2118 1.05573 21.2557C1.70378 20.9045 2.52453 20.6131 3.30377 20.7479V20.7489C3.5314 20.7889 3.75665 20.8647 3.97565 20.9872H3.97662C4.32021 21.1782 4.67254 21.4952 5.00201 22.0038C5.14282 22.2209 5.28014 22.4732 5.41022 22.7655L5.53717 23.0721C5.74433 23.6035 6.02721 24.1173 6.39362 24.5565C6.98094 25.2614 7.7921 25.7775 8.83307 25.8358C10.4143 25.9238 11.8152 25.0833 12.9229 24.3192L12.9219 24.3182C13.4551 23.9507 13.9438 23.8546 14.419 23.9032C14.9138 23.9538 15.4277 24.1658 15.9922 24.4793C16.5774 24.8044 17.1064 25.1706 17.7501 25.5555C18.3615 25.9211 19.0256 26.2692 19.7364 26.4491C20.3171 26.596 20.8767 26.6656 21.4141 26.6707V26.6698C24.5024 26.7018 26.7244 24.6066 27.962 23.0311C28.4027 22.4702 28.7324 21.9605 28.9434 21.6043C29.0349 21.4502 29.105 21.3249 29.1524 21.2372C29.1759 21.1936 29.1936 21.1588 29.2061 21.1346C29.2087 21.1295 29.2108 21.1241 29.213 21.12C29.2144 21.1177 29.2167 21.1154 29.2188 21.1122C29.2275 21.0987 29.2414 21.0767 29.2608 21.0497C29.3001 20.9949 29.359 20.9194 29.4337 20.8407C29.5472 20.721 29.6789 20.6152 29.8184 20.5467Z" fill="white" stroke="white"/>
<path opacity="0.15" d="M2.64166 18.6836C3.23368 18.651 3.7726 18.7396 4.22272 18.9893C4.66454 19.2344 5.06497 19.6585 5.34772 20.3809C5.73712 21.377 6.46104 21.8965 7.34088 22.1514C7.80523 22.2865 8.31187 22.3481 8.83307 22.377C9.66205 22.4231 10.3891 22.1413 11.0274 21.8232C11.3431 21.666 11.6633 21.4861 11.9542 21.3301C12.2535 21.1695 12.5368 21.0251 12.8204 20.9141C15.5956 19.8283 17.273 20.1801 18.546 20.8564C19.2086 21.2086 19.7754 21.6554 20.3663 22.1055C20.9411 22.5433 21.5505 22.9934 22.2413 23.2598C24.6632 24.1939 26.4904 23.9197 27.8184 23.1572C28.3829 22.8332 28.8427 22.4292 29.212 22.0156L29.211 22.0146C29.4646 21.7326 29.6762 21.4457 29.8506 21.1768L29.8516 21.1758C29.8746 21.1401 29.8953 21.1035 29.9171 21.0684C30.2171 23.0035 29.6521 24.4533 28.6192 25.5723C27.4624 26.8254 25.69 27.6951 23.7706 28.29C19.939 29.4776 15.7562 29.5 15.5059 29.5H15.4932L14.6661 29.4795C13.2552 29.4211 10.2826 29.199 7.45416 28.3584C5.56635 27.7973 3.79614 26.9756 2.59088 25.7891C1.40898 24.6253 0.751976 23.0964 1.08698 21.0225L1.08795 21.0176C1.09659 20.9607 1.10671 20.9035 1.11725 20.8447C1.13742 20.7346 1.16143 20.621 1.18854 20.5039L1.18756 20.5029C1.2412 20.2724 1.29694 20.0427 1.3526 19.8115L1.35162 19.8105C1.38755 19.6631 1.42376 19.5181 1.46002 19.374V19.373C1.49423 19.2364 1.52877 19.1009 1.56354 18.9648C1.57358 18.9256 1.58287 18.8865 1.59283 18.8477C1.83404 18.7882 2.07589 18.7422 2.31451 18.7129L2.64166 18.6836ZM1.66022 18.5908C1.65894 18.5952 1.65791 18.5987 1.65729 18.6006L1.65631 18.6025C1.65652 18.6019 1.65746 18.5992 1.65826 18.5967L1.66217 18.584C1.6615 18.5864 1.66079 18.5889 1.66022 18.5908Z" fill="white" stroke="white"/>
</g>
<defs>
<radialGradient id="paint0_radial_1_3482" cx="0" cy="0" r="1" gradientUnits="userSpaceOnUse" gradientTransform="translate(15.4999 14.9998) scale(14.9075 15.0942)">
<stop offset="2.23767e-07" stop-color="#CFCFFA"/>
<stop offset="1" stop-color="#767FF7"/>
</radialGradient>
<clipPath id="clip0_1_3482">
<rect width="30" height="30" fill="white" transform="translate(0.5)"/>
</clipPath>
</defs>
</svg>
